<svg width="136" height="136" viewBox="0 0 136 136" fill="none" xmlns="http://www.w3.org/2000/svg">
<path d="M107.667 17H28.3333C22.1 17 17 22.1 17 28.3333V107.667C17 113.9 22.1 119 28.3333 119H107.667C113.9 119 119 113.9 119 107.667V28.3333C119 22.1 113.9 17 107.667 17ZM73.6667 40.2333L79.9 34L87.8333 41.9333L95.7667 34L102 40.2333L94.0667 48.1667L102 56.1L95.7667 62.3333L87.8333 54.4L79.9 62.3333L73.6667 56.1L81.6 48.1667L73.6667 40.2333ZM35.1333 43.6333H63.4667V52.1333H35.1333V43.6333ZM65.1667 90.6667H53.8333V102H45.3333V90.6667H34V82.1667H45.3333V70.8333H53.8333V82.1667H65.1667V90.6667ZM102 97.4667H73.6667V88.9667H102V97.4667ZM102 83.8667H73.6667V75.3667H102V83.8667Z" fill="#67B2DC"/>
</svg>
